<svg width="156" height="30" viewBox="0 0 156 30" fill="none" xmlns="http://www.w3.org/2000/svg">
<path d="M119.556 18.4872C119.556 18.8605 119.623 19.2114 119.755 19.5399C119.888 19.8535 120.065 20.1298 120.286 20.3687C120.522 20.6076 120.795 20.7943 121.104 20.9287C121.428 21.0631 121.775 21.1303 122.143 21.1303C122.497 21.1303 122.829 21.0631 123.139 20.9287C123.463 20.7943 123.736 20.6076 123.957 20.3687C124.193 20.1298 124.377 19.8535 124.51 19.5399C124.657 19.2264 124.731 18.8904 124.731 18.532C124.731 18.1736 124.657 17.8376 124.51 17.524C124.377 17.1955 124.193 16.9118 123.957 16.6728C123.736 16.4339 123.463 16.2473 123.139 16.1129C122.829 15.9785 122.497 15.9113 122.143 15.9113C121.775 15.9113 121.428 15.9785 121.104 16.1129C120.795 16.2473 120.522 16.4339 120.286 16.6728C120.065 16.9118 119.888 17.188 119.755 17.5016C119.623 17.8003 119.556 18.1288 119.556 18.4872ZM124.598 12.7754H128.623V24.2662H124.598V22.9894C123.743 24.0795 122.586 24.6246 121.126 24.6246C120.301 24.6246 119.541 24.4752 118.849 24.1766C118.156 23.863 117.551 23.4299 117.035 22.8774C116.519 22.3249 116.114 21.6753 115.819 20.9287C115.539 20.1821 115.399 19.3682 115.399 18.4872C115.399 17.6659 115.539 16.8894 115.819 16.1577C116.099 15.411 116.49 14.7614 116.991 14.2089C117.492 13.6564 118.089 13.2234 118.782 12.9098C119.475 12.5813 120.242 12.417 121.082 12.417C122.497 12.417 123.669 12.9172 124.598 13.9177V12.7754ZM136.079 20.8839H140.855V24.2662H129.356L134.708 16.1577H130.086V12.7754H141.386L136.079 20.8839ZM146.27 22.6982L140.786 12.7754H145.43L148.459 18.6664L151.4 12.7754H156L146.889 30.0004H142.4L146.27 22.6982Z" fill="#2D3436"/>
<path d="M96.4769 4.06142C97.1549 1.65741 99.3242 0 101.792 0H118.156L117.722 1.53838C117.044 3.94239 114.875 5.5998 112.407 5.5998H96.043L96.4769 4.06142Z" fill="#297DFE"/>
<path d="M94.4484 13.7595C94.9946 11.1776 97.2472 9.33301 99.854 9.33301H110.785L110.537 10.5063C109.991 13.0882 107.738 14.9328 105.131 14.9328H94.2002L94.4484 13.7595Z" fill="#F4E830"/>
<path d="M92.7914 22.7274C93.4693 20.3234 95.6387 18.666 98.1069 18.666H114.471L114.037 20.2045C113.359 22.6085 111.189 24.2658 108.721 24.2658H92.3574L92.7914 22.7274Z" fill="#9867FF"/>
<path d="M4.15729 18.4865C4.15729 18.8598 4.22363 19.2107 4.35631 19.5392C4.48899 19.8528 4.66589 20.1291 4.88703 20.368C5.1229 20.6069 5.39563 20.7936 5.70522 20.928C6.02954 21.0624 6.37598 21.1296 6.74454 21.1296C7.09835 21.1296 7.43005 21.0624 7.73963 20.928C8.06396 20.7936 8.33669 20.6069 8.55783 20.368C8.7937 20.1291 8.97798 19.8528 9.11066 19.5392C9.25808 19.2256 9.33179 18.8897 9.33179 18.5313C9.33179 18.1729 9.25808 17.8369 9.11066 17.5233C8.97798 17.1948 8.7937 16.9111 8.55783 16.6721C8.33669 16.4332 8.06396 16.2465 7.73963 16.1122C7.43005 15.9778 7.09835 15.9106 6.74454 15.9106C6.37598 15.9106 6.02954 15.9778 5.70522 16.1122C5.39563 16.2465 5.1229 16.4332 4.88703 16.6721C4.66589 16.9111 4.48899 17.1873 4.35631 17.5009C4.22363 17.7996 4.15729 18.1281 4.15729 18.4865ZM9.19911 12.7747H13.2236V24.2655H9.19911V22.9887C8.34406 24.0788 7.1868 24.6239 5.72733 24.6239C4.90177 24.6239 4.14255 24.4745 3.44967 24.1759C2.75678 23.8623 2.15236 23.4292 1.63638 22.8767C1.1204 22.3242 0.714995 21.6746 0.420151 20.928C0.14005 20.1813 0 19.3675 0 18.4865C0 17.6652 0.14005 16.8887 0.420151 16.157C0.700252 15.4103 1.09092 14.7607 1.59215 14.2082C2.09339 13.6557 2.69044 13.2227 3.38333 12.9091C4.07621 12.5805 4.8428 12.4163 5.6831 12.4163C7.09835 12.4163 8.27035 12.9165 9.19911 13.917V12.7747ZM18.8443 12.7747V19.248C18.8443 20.6667 19.5224 21.376 20.8787 21.376C22.235 21.376 22.9131 20.6667 22.9131 19.248V12.7747H26.9156V20.032C26.9156 21.585 26.407 22.7498 25.3898 23.5263C24.3873 24.3028 22.8836 24.691 20.8787 24.691C18.8738 24.691 17.3627 24.3028 16.3455 23.5263C15.343 22.7498 14.8418 21.585 14.8418 20.032V12.7747H18.8443ZM32.9955 16.157V24.2655H28.9931V16.157H27.6664V12.7747H28.9931V9.3252H32.9955V12.7747H35.2733V16.157H32.9955ZM39.648 18.4641C39.648 18.8523 39.7144 19.2107 39.8471 19.5392C39.9945 19.8528 40.1788 20.1291 40.3999 20.368C40.6358 20.6069 40.9085 20.7936 41.2181 20.928C41.5424 21.0624 41.8815 21.1296 42.2353 21.1296C42.5891 21.1296 42.9208 21.0624 43.2304 20.928C43.5547 20.7936 43.8274 20.6069 44.0486 20.368C44.2845 20.1291 44.4687 19.8528 44.6014 19.5392C44.7488 19.2107 44.8225 18.8598 44.8225 18.4865C44.8225 18.1281 44.7488 17.7921 44.6014 17.4785C44.4687 17.15 44.2845 16.8663 44.0486 16.6273C43.8274 16.3884 43.5547 16.2018 43.2304 16.0674C42.9208 15.933 42.5891 15.8658 42.2353 15.8658C41.8815 15.8658 41.5424 15.933 41.2181 16.0674C40.9085 16.2018 40.6358 16.3884 40.3999 16.6273C40.1788 16.8663 39.9945 17.1425 39.8471 17.4561C39.7144 17.7697 39.648 18.1057 39.648 18.4641ZM35.4244 18.4193C35.4244 17.5681 35.594 16.7767 35.933 16.045C36.2721 15.2983 36.7438 14.6562 37.3483 14.1186C37.9527 13.5661 38.6677 13.1331 39.4933 12.8195C40.3336 12.5059 41.2476 12.3491 42.2353 12.3491C43.2083 12.3491 44.1076 12.5059 44.9331 12.8195C45.7734 13.1181 46.4958 13.5437 47.1002 14.0962C47.7194 14.6338 48.1985 15.2834 48.5376 16.045C48.8766 16.7916 49.0462 17.6204 49.0462 18.5313C49.0462 19.4422 48.8693 20.2784 48.5155 21.04C48.1764 21.7866 47.7046 22.4362 47.1002 22.9887C46.4958 23.5263 45.766 23.9444 44.911 24.2431C44.0707 24.5417 43.1567 24.691 42.169 24.691C41.196 24.691 40.2967 24.5417 39.4711 24.2431C38.6456 23.9444 37.9306 23.5188 37.3262 22.9663C36.7365 22.4138 36.2721 21.7568 35.933 20.9952C35.594 20.2187 35.4244 19.36 35.4244 18.4193ZM50.2445 12.7747H54.247V14.1858C55.3379 13.1256 56.5615 12.5955 57.9178 12.5955C59.5984 12.5955 60.881 13.3123 61.7655 14.7458C62.6648 13.2973 63.9474 12.5731 65.6132 12.5731C66.144 12.5731 66.6452 12.6552 67.1169 12.8195C67.5887 12.9688 67.9941 13.2152 68.3332 13.5586C68.6722 13.8872 68.9376 14.3202 69.1292 14.8578C69.3356 15.3954 69.4388 16.045 69.4388 16.8065V24.2655H65.4363V18.5985C65.4363 18.0161 65.3921 17.5382 65.3036 17.1649C65.2299 16.7916 65.112 16.5004 64.9498 16.2913C64.8024 16.0823 64.6255 15.9404 64.4191 15.8658C64.2127 15.7911 63.9916 15.7538 63.7557 15.7538C62.4732 15.7538 61.8319 16.702 61.8319 18.5985V24.2655H57.8294V18.5985C57.8294 18.0161 57.7925 17.5382 57.7188 17.1649C57.6451 16.7767 57.5345 16.4705 57.3871 16.2465C57.2544 16.0226 57.0775 15.8732 56.8564 15.7986C56.6353 15.709 56.3773 15.6642 56.0824 15.6642C55.8318 15.6642 55.5959 15.7015 55.3748 15.7762C55.1537 15.8508 54.9547 16.0002 54.7777 16.2242C54.6156 16.4332 54.4829 16.7319 54.3797 17.1201C54.2913 17.4934 54.247 17.9862 54.247 18.5985V24.2655H50.2445V12.7747ZM74.7945 18.4865C74.7945 18.8598 74.8608 19.2107 74.9935 19.5392C75.1262 19.8528 75.3031 20.1291 75.5242 20.368C75.7601 20.6069 76.0328 20.7936 76.3424 20.928C76.6667 21.0624 77.0132 21.1296 77.3817 21.1296C77.7355 21.1296 78.0672 21.0624 78.3768 20.928C78.7011 20.7936 78.9739 20.6069 79.195 20.368C79.4309 20.1291 79.6152 19.8528 79.7478 19.5392C79.8953 19.2256 79.969 18.8897 79.969 18.5313C79.969 18.1729 79.8953 17.8369 79.7478 17.5233C79.6152 17.1948 79.4309 16.9111 79.195 16.6721C78.9739 16.4332 78.7011 16.2465 78.3768 16.1122C78.0672 15.9778 77.7355 15.9106 77.3817 15.9106C77.0132 15.9106 76.6667 15.9778 76.3424 16.1122C76.0328 16.2465 75.7601 16.4332 75.5242 16.6721C75.3031 16.9111 75.1262 17.1873 74.9935 17.5009C74.8608 17.7996 74.7945 18.1281 74.7945 18.4865ZM79.8363 12.7747H83.8609V24.2655H79.8363V22.9887C78.9812 24.0788 77.824 24.6239 76.3645 24.6239C75.5389 24.6239 74.7797 24.4745 74.0868 24.1759C73.394 23.8623 72.7895 23.4292 72.2736 22.8767C71.7576 22.3242 71.3522 21.6746 71.0573 20.928C70.7772 20.1813 70.6372 19.3675 70.6372 18.4865C70.6372 17.6652 70.7772 16.8887 71.0573 16.157C71.3374 15.4103 71.7281 14.7607 72.2293 14.2082C72.7306 13.6557 73.3276 13.2227 74.0205 12.9091C74.7134 12.5805 75.48 12.4163 76.3203 12.4163C77.7355 12.4163 78.9075 12.9165 79.8363 13.917V12.7747ZM89.9457 16.157V24.2655H85.9432V16.157H84.6164V12.7747H85.9432V9.3252H89.9457V12.7747H92.2234V16.157H89.9457Z" fill="#2D3436"/>
</svg>
