<svg id="icon_home" xmlns="http://www.w3.org/2000/svg" width="13.692" height="13.692" viewBox="0 0 13.692 13.692">
  <path id="Path_357" data-name="Path 357" d="M13.334,4.438,7.343.159a.856.856,0,0,0-.994,0L.359,4.438a.856.856,0,0,0,.994,1.393l.359-.256v7.261a.856.856,0,0,0,.856.856h8.558a.856.856,0,0,0,.856-.856V5.575a1.459,1.459,0,0,0,.855.415.856.856,0,0,0,.5-1.552Zm-3.065,7.543H8.558V9.413a1.712,1.712,0,0,0-3.423,0v2.567H3.423V4.353L6.846,1.908l3.423,2.445Z" transform="translate(0 0)" fill="#43425d"/>
</svg>
