<svg xmlns="http://www.w3.org/2000/svg" width="13.537" height="13.537" viewBox="0 0 13.537 13.537">
  <path id="userlab" d="M12.056,11H10.973A4.217,4.217,0,0,0,8.461,3.384V1.692A.846.846,0,0,0,7.615.846V.423A.423.423,0,0,0,7.192,0H4.653A.423.423,0,0,0,4.23.423V.846a.846.846,0,0,0-.846.846V7.615a.846.846,0,0,0,.846.846V9.73a.423.423,0,0,0,.423.423H7.192a.423.423,0,0,0,.423-.423V8.461a.846.846,0,0,0,.846-.846V4.23a3.384,3.384,0,1,1,0,6.769H1.481A1.482,1.482,0,0,0,0,12.48a1.059,1.059,0,0,0,1.058,1.058H12.48a1.059,1.059,0,0,0,1.058-1.058A1.482,1.482,0,0,0,12.056,11ZM6.769,9.307H5.076V8.461H6.769Zm.846-1.692H4.23V1.692h.846V.846H6.769v.846h.846Zm4.865,5.076H1.058a.211.211,0,0,1-.212-.212.635.635,0,0,1,.635-.635H12.056a.635.635,0,0,1,.635.635A.211.211,0,0,1,12.48,12.691Z" fill="#43425d"/>
</svg>
