<svg id="calendar2-range" xmlns="http://www.w3.org/2000/svg" width="14" height="14" viewBox="0 0 14 14">
  <path id="Path_358" data-name="Path 358" d="M3.063,0A.437.437,0,0,1,3.5.438V.875h7V.438a.438.438,0,0,1,.875,0V.875h.875A1.75,1.75,0,0,1,14,2.625V12.25A1.75,1.75,0,0,1,12.25,14H1.75A1.75,1.75,0,0,1,0,12.25V2.625A1.75,1.75,0,0,1,1.75.875h.875V.438A.437.437,0,0,1,3.063,0ZM1.75,1.75a.875.875,0,0,0-.875.875V12.25a.875.875,0,0,0,.875.875h10.5a.875.875,0,0,0,.875-.875V2.625a.875.875,0,0,0-.875-.875Z" fill="#43425d"/>
  <path id="Path_359" data-name="Path 359" d="M2.286,3.882A.407.407,0,0,1,2.714,3.5h8.571a.407.407,0,0,1,.429.382v.765a.407.407,0,0,1-.429.382H2.714a.407.407,0,0,1-.429-.382ZM7.857,6.941a.815.815,0,0,1,.857-.765H13V7.706H8.714A.815.815,0,0,1,7.857,6.941ZM1,8.471H4.429a.815.815,0,0,1,.857.765A.815.815,0,0,1,4.429,10H1Z" transform="translate(0 0)" fill="#43425d"/>
</svg>
