<svg xmlns="http://www.w3.org/2000/svg" width="13.154" height="13.154" viewBox="0 0 13.154 13.154">
  <path id="gear-fill" d="M7.732.863a1.2,1.2,0,0,0-2.31,0l-.082.28a1.2,1.2,0,0,1-1.731.717l-.255-.14A1.2,1.2,0,0,0,1.721,3.354l.139.256A1.2,1.2,0,0,1,1.143,5.34l-.28.082a1.2,1.2,0,0,0,0,2.31l.28.082A1.2,1.2,0,0,1,1.86,9.545L1.72,9.8a1.2,1.2,0,0,0,1.634,1.634l.256-.139a1.2,1.2,0,0,1,1.731.717l.082.28a1.2,1.2,0,0,0,2.31,0l.082-.28a1.2,1.2,0,0,1,1.731-.717l.255.14A1.2,1.2,0,0,0,11.434,9.8l-.139-.256a1.2,1.2,0,0,1,.717-1.731l.28-.082a1.2,1.2,0,0,0,0-2.31l-.28-.082a1.2,1.2,0,0,1-.717-1.731l.14-.255A1.2,1.2,0,0,0,9.8,1.721l-.256.139a1.2,1.2,0,0,1-1.731-.717L7.732.863ZM6.577,8.986a2.409,2.409,0,1,1,2.408-2.41,2.409,2.409,0,0,1-2.408,2.41Z" fill="#43425d"/>
</svg>
