<svg xmlns="http://www.w3.org/2000/svg" width="14" height="10" viewBox="0 0 14 10">
  <path id="people" d="M13.125,12A.845.845,0,0,0,14,11.167c0-.833-.875-3.333-4.375-3.333s-4.375,2.5-4.375,3.333A.845.845,0,0,0,6.125,12Zm-6.981-.833-.019,0A2.494,2.494,0,0,1,6.79,9.73,3.587,3.587,0,0,1,9.625,8.667,3.592,3.592,0,0,1,12.46,9.73a2.5,2.5,0,0,1,.665,1.433l-.007,0-.012,0Zm3.481-5A1.71,1.71,0,0,0,11.375,4.5a1.752,1.752,0,0,0-3.5,0A1.71,1.71,0,0,0,9.625,6.167ZM12.25,4.5A2.565,2.565,0,0,1,9.625,7,2.565,2.565,0,0,1,7,4.5,2.565,2.565,0,0,1,9.625,2,2.565,2.565,0,0,1,12.25,4.5ZM6.069,8.067a5.372,5.372,0,0,0-1.076-.206q-.308-.028-.618-.028C.875,7.833,0,10.333,0,11.167Q0,12,.875,12H4.564a1.791,1.791,0,0,1-.189-.833,3.718,3.718,0,0,1,.954-2.42,4.538,4.538,0,0,1,.74-.68Zm-1.764.6a4.425,4.425,0,0,0-.805,2.5H.875A2.494,2.494,0,0,1,1.54,9.73,3.559,3.559,0,0,1,4.305,8.667ZM1.313,4.917a2.565,2.565,0,0,1,2.625-2.5,2.565,2.565,0,0,1,2.625,2.5,2.565,2.565,0,0,1-2.625,2.5A2.565,2.565,0,0,1,1.313,4.917ZM3.938,3.25a1.71,1.71,0,0,0-1.75,1.667,1.71,1.71,0,0,0,1.75,1.667,1.71,1.71,0,0,0,1.75-1.667A1.71,1.71,0,0,0,3.938,3.25Z" transform="translate(0 -2)" fill="#43425d"/>
</svg>
